<mxfile host="Electron" agent="Mozilla/5.0 (Windows NT 10.0; Win64; x64) AppleWebKit/537.36 (KHTML, like Gecko) draw.io/26.2.2 Chrome/134.0.6998.178 Electron/35.1.2 Safari/537.36" version="26.2.2">
  <diagram name="페이지-1" id="mCO7Hlx8SP-RpGobcFLo">
    <mxGraphModel dx="3498" dy="6113" grid="1" gridSize="10" guides="1" tooltips="1" connect="1" arrows="1" fold="1" page="1" pageScale="1" pageWidth="1600" pageHeight="1200" math="0" shadow="0">
      <root>
        <mxCell id="0" />
        <mxCell id="1" parent="0" />
        <mxCell id="CpRL-xqse5XnPWbmLiNm-50" value="" style="rounded=0;whiteSpace=wrap;html=1;" vertex="1" parent="1">
          <mxGeometry x="-1600" y="-4800" width="1000" height="860" as="geometry" />
        </mxCell>
        <mxCell id="CpRL-xqse5XnPWbmLiNm-1" value="포트홀 관리 담당자" style="rounded=0;whiteSpace=wrap;html=1;fillColor=#C0C0C0;" vertex="1" parent="1">
          <mxGeometry x="-1320" y="-4760" width="160" height="80" as="geometry" />
        </mxCell>
        <mxCell id="CpRL-xqse5XnPWbmLiNm-2" value="도로보수반 직원" style="rounded=0;whiteSpace=wrap;html=1;fillColor=#C0C0C0;" vertex="1" parent="1">
          <mxGeometry x="-1560" y="-4760" width="160" height="80" as="geometry" />
        </mxCell>
        <mxCell id="CpRL-xqse5XnPWbmLiNm-3" value="차량" style="rounded=0;whiteSpace=wrap;html=1;fillColor=#C0C0C0;" vertex="1" parent="1">
          <mxGeometry x="-1080" y="-4760" width="160" height="80" as="geometry" />
        </mxCell>
        <mxCell id="CpRL-xqse5XnPWbmLiNm-24" style="edgeStyle=orthogonalEdgeStyle;rounded=0;orthogonalLoop=1;jettySize=auto;html=1;exitX=0.5;exitY=1;exitDx=0;exitDy=0;entryX=0.5;entryY=0;entryDx=0;entryDy=0;" edge="1" parent="1" source="CpRL-xqse5XnPWbmLiNm-4" target="CpRL-xqse5XnPWbmLiNm-6">
          <mxGeometry relative="1" as="geometry" />
        </mxCell>
        <mxCell id="CpRL-xqse5XnPWbmLiNm-4" value="포트홀 신고 접수" style="rounded=0;whiteSpace=wrap;html=1;" vertex="1" parent="1">
          <mxGeometry x="-1290" y="-4640" width="100" height="60" as="geometry" />
        </mxCell>
        <mxCell id="CpRL-xqse5XnPWbmLiNm-25" style="edgeStyle=orthogonalEdgeStyle;rounded=0;orthogonalLoop=1;jettySize=auto;html=1;exitX=0.5;exitY=1;exitDx=0;exitDy=0;entryX=0.5;entryY=0;entryDx=0;entryDy=0;" edge="1" parent="1" source="CpRL-xqse5XnPWbmLiNm-6" target="CpRL-xqse5XnPWbmLiNm-7">
          <mxGeometry relative="1" as="geometry" />
        </mxCell>
        <mxCell id="CpRL-xqse5XnPWbmLiNm-6" value="측정 도로 지정" style="rounded=0;whiteSpace=wrap;html=1;" vertex="1" parent="1">
          <mxGeometry x="-1290" y="-4540" width="100" height="60" as="geometry" />
        </mxCell>
        <mxCell id="CpRL-xqse5XnPWbmLiNm-7" value="도로 측정 명령" style="rounded=0;whiteSpace=wrap;html=1;" vertex="1" parent="1">
          <mxGeometry x="-1290" y="-4440" width="100" height="60" as="geometry" />
        </mxCell>
        <mxCell id="CpRL-xqse5XnPWbmLiNm-26" style="edgeStyle=orthogonalEdgeStyle;rounded=0;orthogonalLoop=1;jettySize=auto;html=1;exitX=0.5;exitY=1;exitDx=0;exitDy=0;entryX=0.5;entryY=0;entryDx=0;entryDy=0;" edge="1" parent="1" source="CpRL-xqse5XnPWbmLiNm-8" target="CpRL-xqse5XnPWbmLiNm-9">
          <mxGeometry relative="1" as="geometry" />
        </mxCell>
        <mxCell id="CpRL-xqse5XnPWbmLiNm-8" value="도로 측정 시작" style="rounded=0;whiteSpace=wrap;html=1;" vertex="1" parent="1">
          <mxGeometry x="-1050" y="-4640" width="100" height="60" as="geometry" />
        </mxCell>
        <mxCell id="CpRL-xqse5XnPWbmLiNm-27" style="edgeStyle=orthogonalEdgeStyle;rounded=0;orthogonalLoop=1;jettySize=auto;html=1;exitX=0.5;exitY=1;exitDx=0;exitDy=0;entryX=0.5;entryY=0;entryDx=0;entryDy=0;" edge="1" parent="1" source="CpRL-xqse5XnPWbmLiNm-9" target="CpRL-xqse5XnPWbmLiNm-10">
          <mxGeometry relative="1" as="geometry" />
        </mxCell>
        <mxCell id="CpRL-xqse5XnPWbmLiNm-9" value="포트홀 감지" style="rounded=0;whiteSpace=wrap;html=1;" vertex="1" parent="1">
          <mxGeometry x="-1050" y="-4540" width="100" height="60" as="geometry" />
        </mxCell>
        <mxCell id="CpRL-xqse5XnPWbmLiNm-28" style="edgeStyle=orthogonalEdgeStyle;rounded=0;orthogonalLoop=1;jettySize=auto;html=1;exitX=0.5;exitY=1;exitDx=0;exitDy=0;entryX=0.5;entryY=0;entryDx=0;entryDy=0;" edge="1" parent="1" source="CpRL-xqse5XnPWbmLiNm-10" target="CpRL-xqse5XnPWbmLiNm-11">
          <mxGeometry relative="1" as="geometry" />
        </mxCell>
        <mxCell id="CpRL-xqse5XnPWbmLiNm-10" value="측정 센서 활성화" style="rounded=0;whiteSpace=wrap;html=1;" vertex="1" parent="1">
          <mxGeometry x="-1050" y="-4440" width="100" height="60" as="geometry" />
        </mxCell>
        <mxCell id="CpRL-xqse5XnPWbmLiNm-29" style="edgeStyle=orthogonalEdgeStyle;rounded=0;orthogonalLoop=1;jettySize=auto;html=1;exitX=0.5;exitY=1;exitDx=0;exitDy=0;entryX=0.5;entryY=0;entryDx=0;entryDy=0;" edge="1" parent="1" source="CpRL-xqse5XnPWbmLiNm-11" target="CpRL-xqse5XnPWbmLiNm-12">
          <mxGeometry relative="1" as="geometry" />
        </mxCell>
        <mxCell id="CpRL-xqse5XnPWbmLiNm-11" value="포트홀 측정" style="rounded=0;whiteSpace=wrap;html=1;" vertex="1" parent="1">
          <mxGeometry x="-1050" y="-4340" width="100" height="60" as="geometry" />
        </mxCell>
        <mxCell id="CpRL-xqse5XnPWbmLiNm-34" style="edgeStyle=orthogonalEdgeStyle;rounded=0;orthogonalLoop=1;jettySize=auto;html=1;exitX=1;exitY=0.5;exitDx=0;exitDy=0;entryX=0;entryY=0.5;entryDx=0;entryDy=0;" edge="1" parent="1" source="CpRL-xqse5XnPWbmLiNm-12" target="CpRL-xqse5XnPWbmLiNm-18">
          <mxGeometry relative="1" as="geometry">
            <Array as="points">
              <mxPoint x="-900" y="-4210" />
              <mxPoint x="-900" y="-4610" />
            </Array>
          </mxGeometry>
        </mxCell>
        <mxCell id="CpRL-xqse5XnPWbmLiNm-12" value="포트홀 데이터 전송" style="rounded=0;whiteSpace=wrap;html=1;" vertex="1" parent="1">
          <mxGeometry x="-1050" y="-4240" width="100" height="60" as="geometry" />
        </mxCell>
        <mxCell id="CpRL-xqse5XnPWbmLiNm-13" value="서버" style="rounded=0;whiteSpace=wrap;html=1;fillColor=#C0C0C0;" vertex="1" parent="1">
          <mxGeometry x="-840" y="-4760" width="160" height="80" as="geometry" />
        </mxCell>
        <mxCell id="CpRL-xqse5XnPWbmLiNm-14" value="웹페이지" style="rounded=0;whiteSpace=wrap;html=1;fillColor=#C0C0C0;" vertex="1" parent="1">
          <mxGeometry x="-840" y="-4360" width="160" height="80" as="geometry" />
        </mxCell>
        <mxCell id="CpRL-xqse5XnPWbmLiNm-31" style="edgeStyle=orthogonalEdgeStyle;rounded=0;orthogonalLoop=1;jettySize=auto;html=1;exitX=0.5;exitY=1;exitDx=0;exitDy=0;entryX=0.5;entryY=0;entryDx=0;entryDy=0;" edge="1" parent="1" source="CpRL-xqse5XnPWbmLiNm-15" target="CpRL-xqse5XnPWbmLiNm-16">
          <mxGeometry relative="1" as="geometry" />
        </mxCell>
        <mxCell id="CpRL-xqse5XnPWbmLiNm-15" value="도로 보수 출발" style="rounded=0;whiteSpace=wrap;html=1;" vertex="1" parent="1">
          <mxGeometry x="-1530" y="-4640" width="100" height="60" as="geometry" />
        </mxCell>
        <mxCell id="CpRL-xqse5XnPWbmLiNm-40" style="edgeStyle=orthogonalEdgeStyle;rounded=0;orthogonalLoop=1;jettySize=auto;html=1;exitX=0.5;exitY=1;exitDx=0;exitDy=0;entryX=0.5;entryY=0;entryDx=0;entryDy=0;" edge="1" parent="1" source="CpRL-xqse5XnPWbmLiNm-16" target="CpRL-xqse5XnPWbmLiNm-39">
          <mxGeometry relative="1" as="geometry" />
        </mxCell>
        <mxCell id="CpRL-xqse5XnPWbmLiNm-16" value="도로 보수" style="rounded=0;whiteSpace=wrap;html=1;" vertex="1" parent="1">
          <mxGeometry x="-1530" y="-4540" width="100" height="60" as="geometry" />
        </mxCell>
        <mxCell id="CpRL-xqse5XnPWbmLiNm-35" style="edgeStyle=orthogonalEdgeStyle;rounded=0;orthogonalLoop=1;jettySize=auto;html=1;exitX=1;exitY=0.5;exitDx=0;exitDy=0;entryX=1;entryY=0.5;entryDx=0;entryDy=0;" edge="1" parent="1" source="CpRL-xqse5XnPWbmLiNm-17" target="CpRL-xqse5XnPWbmLiNm-22">
          <mxGeometry relative="1" as="geometry">
            <Array as="points">
              <mxPoint x="-640" y="-4509" />
              <mxPoint x="-640" y="-4209" />
            </Array>
          </mxGeometry>
        </mxCell>
        <mxCell id="CpRL-xqse5XnPWbmLiNm-17" value="포트홀 데이터 DB 저장" style="rounded=0;whiteSpace=wrap;html=1;" vertex="1" parent="1">
          <mxGeometry x="-810" y="-4540" width="100" height="60" as="geometry" />
        </mxCell>
        <mxCell id="CpRL-xqse5XnPWbmLiNm-30" style="edgeStyle=orthogonalEdgeStyle;rounded=0;orthogonalLoop=1;jettySize=auto;html=1;exitX=0.5;exitY=1;exitDx=0;exitDy=0;entryX=0.5;entryY=0;entryDx=0;entryDy=0;" edge="1" parent="1" source="CpRL-xqse5XnPWbmLiNm-18" target="CpRL-xqse5XnPWbmLiNm-17">
          <mxGeometry relative="1" as="geometry" />
        </mxCell>
        <mxCell id="CpRL-xqse5XnPWbmLiNm-18" value="도로별 위험도 분석" style="rounded=0;whiteSpace=wrap;html=1;" vertex="1" parent="1">
          <mxGeometry x="-810" y="-4640" width="100" height="60" as="geometry" />
        </mxCell>
        <mxCell id="CpRL-xqse5XnPWbmLiNm-42" style="edgeStyle=orthogonalEdgeStyle;rounded=0;orthogonalLoop=1;jettySize=auto;html=1;exitX=0.5;exitY=1;exitDx=0;exitDy=0;entryX=0.5;entryY=0;entryDx=0;entryDy=0;" edge="1" parent="1" source="CpRL-xqse5XnPWbmLiNm-20" target="CpRL-xqse5XnPWbmLiNm-37">
          <mxGeometry relative="1" as="geometry" />
        </mxCell>
        <mxCell id="CpRL-xqse5XnPWbmLiNm-20" value="도로 데이터 조회" style="rounded=0;whiteSpace=wrap;html=1;" vertex="1" parent="1">
          <mxGeometry x="-1290" y="-4240" width="100" height="60" as="geometry" />
        </mxCell>
        <mxCell id="CpRL-xqse5XnPWbmLiNm-21" value="도로 데이터 수정" style="rounded=0;whiteSpace=wrap;html=1;" vertex="1" parent="1">
          <mxGeometry x="-1290" y="-4040" width="100" height="60" as="geometry" />
        </mxCell>
        <mxCell id="CpRL-xqse5XnPWbmLiNm-36" style="edgeStyle=orthogonalEdgeStyle;rounded=0;orthogonalLoop=1;jettySize=auto;html=1;exitX=0.5;exitY=1;exitDx=0;exitDy=0;entryX=1;entryY=0.5;entryDx=0;entryDy=0;" edge="1" parent="1" source="CpRL-xqse5XnPWbmLiNm-22" target="CpRL-xqse5XnPWbmLiNm-20">
          <mxGeometry relative="1" as="geometry">
            <mxPoint x="-1190" y="-4070" as="targetPoint" />
            <Array as="points">
              <mxPoint x="-760" y="-4140" />
              <mxPoint x="-1140" y="-4140" />
              <mxPoint x="-1140" y="-4210" />
            </Array>
          </mxGeometry>
        </mxCell>
        <mxCell id="CpRL-xqse5XnPWbmLiNm-22" value="도로 데이터 출력" style="rounded=0;whiteSpace=wrap;html=1;" vertex="1" parent="1">
          <mxGeometry x="-810" y="-4240" width="100" height="60" as="geometry" />
        </mxCell>
        <mxCell id="CpRL-xqse5XnPWbmLiNm-33" value="" style="endArrow=classic;html=1;rounded=0;exitX=1;exitY=0.5;exitDx=0;exitDy=0;entryX=0;entryY=0.5;entryDx=0;entryDy=0;edgeStyle=orthogonalEdgeStyle;" edge="1" parent="1" source="CpRL-xqse5XnPWbmLiNm-7" target="CpRL-xqse5XnPWbmLiNm-8">
          <mxGeometry width="50" height="50" relative="1" as="geometry">
            <mxPoint x="-770" y="-4420" as="sourcePoint" />
            <mxPoint x="-720" y="-4470" as="targetPoint" />
            <Array as="points">
              <mxPoint x="-1140" y="-4410" />
              <mxPoint x="-1140" y="-4610" />
            </Array>
          </mxGeometry>
        </mxCell>
        <mxCell id="CpRL-xqse5XnPWbmLiNm-41" style="edgeStyle=orthogonalEdgeStyle;rounded=0;orthogonalLoop=1;jettySize=auto;html=1;exitX=0;exitY=0.5;exitDx=0;exitDy=0;entryX=1;entryY=0.5;entryDx=0;entryDy=0;" edge="1" parent="1" source="CpRL-xqse5XnPWbmLiNm-37" target="CpRL-xqse5XnPWbmLiNm-15">
          <mxGeometry relative="1" as="geometry">
            <Array as="points">
              <mxPoint x="-1380" y="-4110" />
              <mxPoint x="-1380" y="-4610" />
            </Array>
          </mxGeometry>
        </mxCell>
        <mxCell id="CpRL-xqse5XnPWbmLiNm-37" value="도로 보수 요청" style="rounded=0;whiteSpace=wrap;html=1;" vertex="1" parent="1">
          <mxGeometry x="-1290" y="-4140" width="100" height="60" as="geometry" />
        </mxCell>
        <mxCell id="CpRL-xqse5XnPWbmLiNm-43" style="edgeStyle=orthogonalEdgeStyle;rounded=0;orthogonalLoop=1;jettySize=auto;html=1;exitX=0.5;exitY=1;exitDx=0;exitDy=0;entryX=0;entryY=0.5;entryDx=0;entryDy=0;" edge="1" parent="1" source="CpRL-xqse5XnPWbmLiNm-39" target="CpRL-xqse5XnPWbmLiNm-21">
          <mxGeometry relative="1" as="geometry" />
        </mxCell>
        <mxCell id="CpRL-xqse5XnPWbmLiNm-39" value="도로 보수 완료" style="rounded=0;whiteSpace=wrap;html=1;" vertex="1" parent="1">
          <mxGeometry x="-1530" y="-4440" width="100" height="60" as="geometry" />
        </mxCell>
        <mxCell id="CpRL-xqse5XnPWbmLiNm-44" value="" style="endArrow=none;dashed=1;html=1;rounded=0;" edge="1" parent="1">
          <mxGeometry width="50" height="50" relative="1" as="geometry">
            <mxPoint x="-1360" y="-4800" as="sourcePoint" />
            <mxPoint x="-1360" y="-3940" as="targetPoint" />
          </mxGeometry>
        </mxCell>
        <mxCell id="CpRL-xqse5XnPWbmLiNm-45" value="" style="endArrow=none;dashed=1;html=1;rounded=0;" edge="1" parent="1">
          <mxGeometry width="50" height="50" relative="1" as="geometry">
            <mxPoint x="-1120" y="-4800" as="sourcePoint" />
            <mxPoint x="-1120" y="-3940" as="targetPoint" />
          </mxGeometry>
        </mxCell>
        <mxCell id="CpRL-xqse5XnPWbmLiNm-46" value="" style="endArrow=none;dashed=1;html=1;rounded=0;" edge="1" parent="1">
          <mxGeometry width="50" height="50" relative="1" as="geometry">
            <mxPoint x="-880" y="-4800" as="sourcePoint" />
            <mxPoint x="-880" y="-3940" as="targetPoint" />
          </mxGeometry>
        </mxCell>
        <mxCell id="CpRL-xqse5XnPWbmLiNm-49" value="" style="endArrow=none;dashed=1;html=1;rounded=0;" edge="1" parent="1">
          <mxGeometry width="50" height="50" relative="1" as="geometry">
            <mxPoint x="-880" y="-4400" as="sourcePoint" />
            <mxPoint x="-600" y="-4400" as="targetPoint" />
          </mxGeometry>
        </mxCell>
      </root>
    </mxGraphModel>
  </diagram>
</mxfile>
